<?xml version="1.0" encoding="UTF-8"?>
<svg viewBox="38 38 55 30" width="100" height="100" version="1.1"
     xmlns="http://www.w3.org/2000/svg"
     xmlns:xlink="http://www.w3.org/1999/xlink">
<path xmlns="http://www.w3.org/2000/svg"
      d="M41.4441389,45.2063958 C40.6083645,45.0564914 39.9996893,44.324014 40.0000001,43.4685248 L40.0000001,41.5280799 C39.9996893,40.6725907 40.6083645,39.9401133 41.4441389,39.7902089 L43.7187898,39.3903919 C43.9872671,38.392067 44.3838279,37.4333019 44.8984343,36.5383644 L43.5653831,34.6299048 C43.0775987,33.9284621 43.1601355,32.975303 43.7611089,32.3696064 L45.1258994,30.9942361 C45.7251886,30.3894256 46.6691376,30.3062178 47.363521,30.796993 L49.2573001,32.1457089 C50.145516,31.6287448 51.0969244,31.2308944 52.087389,30.9622507 L52.4841304,28.6699669 C52.6306056,27.8255945 53.3580492,27.2094453 54.2086332,27.2093023 L56.1394415,27.2093023 C56.9863531,27.2115689 57.7102554,27.8243606 57.8586543,28.664636 L58.2553958,30.9569198 C59.247945,31.22681 60.2011684,31.6264679 61.0907745,32.1457089 L62.9792637,30.8076548 C63.6736471,30.3168796 64.6175962,30.4000873 65.2168854,31.0048979 L66.5869658,32.3749373 C67.1879391,32.9806339 67.2704759,33.933793 66.7826915,34.6352357 L65.4549302,36.5383644 C65.8417218,37.2297414 66.1589302,37.9583687 66.4018198,38.7133686 C65.8378173,39.4173872 65.4593531,40.253529 65.3015235,41.1442556 L65.1163775,42.2104341 L64.5503598,42.4449934 L63.6775286,41.8319407 C62.7777122,41.1944925 61.7040028,40.8536802 60.604105,40.8563874 C60.4295388,40.8563874 60.2655523,40.8883727 60.0751164,40.9043654 C59.3355662,38.5392329 57.0494288,37.0226943 54.6013191,37.2732514 C52.1532094,37.5238086 50.2162998,39.4725643 49.9636929,41.9392413 C49.711086,44.4059182 51.2122427,46.7122385 53.5579772,47.4613633 C53.4331367,48.7408306 53.7671754,50.0230435 54.4995769,51.0757085 L55.1132036,51.9553058 C55.0338554,52.141887 54.9545071,52.3337992 54.8804487,52.5257113 L53.8224715,52.7122925 C52.9385966,52.8713456 52.1088867,53.2527436 51.4102836,53.8211182 C50.6611291,53.5762458 49.9381164,53.2565828 49.2520103,52.8668884 L47.3582312,54.2049425 C46.6636777,54.6913074 45.723061,54.6059507 45.1258994,54.0023686 L43.7611089,52.6269983 C43.1601355,52.0213016 43.0775987,51.0681425 43.5653831,50.3666998 L44.8984343,48.4635711 C44.3853926,47.5684969 43.9905995,46.6097059 43.7240797,45.6115436 L41.4441389,45.2063958 Z M90,56.9343595 L90,59.4025628 C89.9984427,60.4877623 89.2248723,61.4156043 88.1644097,61.6042214 L85.2814219,62.1373107 C84.9405998,63.3950077 84.439158,64.6027797 83.7896742,65.7303323 L85.4718578,68.1505575 C86.1150211,69.049134 86.0093159,70.2866325 85.2232332,71.0612249 L83.5146001,72.7831032 C82.7520284,73.5516477 81.5519006,73.6573043 80.6686416,73.0336552 L78.2247144,71.3384313 C77.0957104,71.9951729 75.8864486,72.5005484 74.6275921,72.841743 L74.0986035,75.7470795 C73.9114373,76.8157628 72.9907325,77.5953299 71.9138807,77.5968992 L69.5122726,77.5968992 C68.4354208,77.5953299 67.5147159,76.8157628 67.3275498,75.7470795 L66.7985612,72.841743 C65.5414322,72.5004 64.3339381,71.9950201 63.2067288,71.3384313 L60.8262802,73.0336552 C59.9430212,73.6573043 58.7428934,73.5516477 57.9803217,72.7831032 L56.2505291,71.0612249 C55.4779106,70.2882724 55.3748886,69.064995 56.0071943,68.1718811 L57.689378,65.7303323 C57.0379484,64.5943309 56.5364621,63.3774911 56.1976302,62.1106562 L53.3146425,61.5775669 C52.2541798,61.3889499 51.4806094,60.4611078 51.4790521,59.3759083 L51.4790521,56.9503522 C51.4801519,55.8668379 52.2509924,54.939598 53.3093526,54.7486935 L56.1923403,54.2156043 C56.5307957,52.9469499 57.0322898,51.7282992 57.6840881,50.5905973 L56.0071943,48.1970265 C55.3883424,47.3069205 55.4931863,46.0974894 56.255819,45.3290063 L57.9856116,43.5858044 C58.7487474,42.821855 59.9453338,42.7185596 60.8262802,43.3405833 L63.2278883,45.0358072 C64.3550708,44.3791637 65.5625722,43.8737807 66.8197207,43.5324955 L67.3487093,40.627159 C67.5358755,39.5584757 68.4565803,38.7789086 69.5334321,38.7773393 L71.9826492,38.7773393 C73.0518337,38.7861442 73.9631516,39.5611694 74.1515024,40.6218281 L74.6804909,43.5271646 C75.92143,43.8741574 77.1126943,44.3812338 78.2247144,45.0358072 L80.647482,43.3405833 C81.5307411,42.7169342 82.7308688,42.8225908 83.4934406,43.5911353 L85.2232332,45.3343372 C85.9858658,46.1028203 86.0907097,47.3122514 85.4718578,48.2023574 L83.7896742,50.6225826 C84.4416357,51.7602034 84.9431388,52.9788762 85.2814219,54.2475896 L88.1644097,54.7806789 C89.2131997,54.9670836 89.9832228,55.8772533 90,56.9503522 L90,56.9343595 Z M77.3465933,58.1871193 C77.3465933,54.5098501 74.3885086,51.5288344 70.7395261,51.5288344 C67.0905436,51.5288344 64.1324588,54.5098501 64.1324588,58.1871193 C64.1324588,61.8643884 67.0905436,64.8454041 70.7395261,64.8454041 C74.3885086,64.8454041 77.3465933,61.8643884 77.3465933,58.1871193 Z"
      id="Shape" fill="#000000" fill-rule="nonzero"/>
</svg>
