<?xml version="1.0" encoding="UTF-8"?>
<svg width="2094px" height="398px" viewBox="0 0 2094 398" version="1.1" xmlns="http://www.w3.org/2000/svg" xmlns:xlink="http://www.w3.org/1999/xlink">
    <!-- Generator: Sketch 42 (36781) - http://www.bohemiancoding.com/sketch -->
    <title>Black w Font@0.5x@1.5x</title>
    <desc>Created with Sketch.</desc>
    <defs></defs>
    <g id="Page-1" stroke="none" stroke-width="1" fill="none" fill-rule="evenodd">
        <g id="Black-w-Font@0.5x">
            <polyline id="Fill-1" fill="#7E7F7B" points="65.703 0.718 0 153.504 142.202 397.999 297.752 397.999 65.703 0.718"></polyline>
            <polyline id="Fill-2" fill="#7E7F7B" points="253.478 0.717 313.785 104.244 374.254 0.717 253.478 0.717"></polyline>
            <polyline id="Fill-3" fill="#0A0A08" points="374.253 0.718 142.204 397.999 297.754 397.999 439.956 153.504 374.253 0.718"></polyline>
            <path d="M2064.1,278.78 L2064.1,307.217 L2069.02,307.217 L2069.02,297.842 L2068.53,285.322 L2076.91,307.217 L2080.45,307.217 L2088.84,285.303 L2088.36,297.842 L2088.36,307.217 L2093.28,307.217 L2093.28,278.78 L2086.89,278.78 L2078.71,300.576 L2070.5,278.78 L2064.1,278.78 Z M2060.57,278.78 L2038.01,278.78 L2038.01,282.764 L2046.8,282.764 L2046.8,307.217 L2051.7,307.217 L2051.7,282.764 L2060.57,282.764 L2060.57,278.78 L2060.57,278.78 Z" id="Fill-4" fill="#7E7F7B"></path>
            <path d="M1887.86,118.304 L1887.86,188.637 L2004.44,188.637 L2004.44,211.764 L1887.86,211.764 L1887.86,282.414 L2018.38,282.414 L2018.38,305.225 L1864.1,305.225 L1864.1,95.493 L2018.38,95.493 L2018.38,118.304 L1887.86,118.304 Z M1828.14,95.493 L1828.14,305.225 L1800.58,305.225 L1671,128.125 L1671,305.225 L1647.25,305.225 L1647.25,95.493 L1674.81,95.493 L1804.38,271.959 L1804.38,95.493 L1828.14,95.493 Z M1506.14,284.631 C1531.07,284.631 1551.24,276.5 1566.65,260.237 C1581.44,244.608 1588.83,224.648 1588.83,200.359 C1588.83,176.07 1581.44,156.111 1566.65,140.481 C1551.24,124.217 1531.07,116.086 1506.14,116.086 C1481.22,116.086 1461.05,124.217 1445.64,140.481 C1430.85,156.111 1423.46,176.07 1423.46,200.359 C1423.46,224.648 1430.85,244.608 1445.64,260.237 C1461.05,276.5 1481.22,284.631 1506.14,284.631 Z M1506.14,92.959 C1537.4,92.959 1563.06,103.413 1583.13,124.323 C1602.77,144.6 1612.59,169.945 1612.59,200.359 C1612.59,230.774 1602.77,256.118 1583.13,276.395 C1563.06,297.304 1537.4,307.759 1506.14,307.759 C1474.89,307.759 1449.23,297.304 1429.16,276.395 C1409.52,256.118 1399.7,230.774 1399.7,200.359 C1399.7,169.945 1409.52,144.6 1429.16,124.323 C1449.23,103.413 1474.89,92.959 1506.14,92.959 Z M1393.14,118.304 L1319.96,118.304 L1319.96,305.225 L1296.2,305.225 L1296.2,118.304 L1223.02,118.304 L1223.02,95.493 L1393.14,95.493 L1393.14,118.304 Z M1162.52,305.225 L1186.28,305.225 L1186.28,95.493 L1162.52,95.493 L1162.52,305.225 Z" id="Fill-5" fill="#0A0A08"></path>
            <path d="M987.774,198.999 L987.774,117.056 L1045.73,117.056 C1077.78,117.056 1094.02,130.841 1094.02,158.028 C1094.02,185.215 1077.78,198.999 1045.73,198.999 L987.774,198.999 Z M1069.01,218.257 L1071.27,217.657 C1085.93,213.769 1097.62,206.569 1106.01,196.252 C1114.37,185.941 1118.62,173.08 1118.62,158.028 C1118.62,138.883 1111.98,123.512 1098.9,112.348 C1085.74,101.142 1067.96,95.459 1046.06,95.459 L964.517,95.459 L964.517,305.189 L987.774,305.189 L987.774,220.597 L1042.97,220.597 L1102.89,305.189 L1130.49,305.189 L1069.01,218.257 L1069.01,218.257 Z" id="Fill-6" fill="#0A0A08"></path>
            <polyline id="Fill-7" fill="#0A0A08" points="799.451 118.304 799.451 188.637 916.033 188.637 916.033 211.764 799.451 211.764 799.451 282.414 929.972 282.414 929.972 305.225 775.691 305.225 775.691 95.493 929.972 95.493 929.972 118.304 799.451 118.304"></polyline>
            <polyline id="Fill-8" fill="#0A0A08" points="745.313 95.493 745.313 95.493 655.538 305.225 628.293 305.225 538.517 95.493 564.494 95.493 641.915 278.295 719.336 95.493 745.313 95.493"></polyline>
        </g>
    </g>
</svg>